<svg width="295" height="110" viewBox="0 0 295 110" fill="none" xmlns="http://www.w3.org/2000/svg">
<g clip-path="url(#clip0_228_5064)">
<path d="M11.1031 31.297C16.1335 31.297 20.2111 29.5198 20.2111 27.3477C20.2111 25.1756 16.1335 23.3984 11.1031 23.3984C6.07269 23.3984 2 25.1756 2 27.3477C2 29.5198 6.07762 31.297 11.1031 31.297Z" fill="#552306"/>
<path d="M22.2203 19H17.417V40.0003H22.2203V19Z" fill="#552306"/>
<path fill-rule="evenodd" clip-rule="evenodd" d="M62.1822 53.1366C62.1833 49.6511 61.1616 46.2419 59.2439 43.3314C57.3262 40.421 54.5967 38.1371 51.3936 36.7628C48.1905 35.3886 44.6546 34.9843 41.224 35.6001C37.7934 36.216 34.6188 37.8248 32.0937 40.2274C29.5688 37.8189 26.3922 36.205 22.9582 35.5858C19.5242 34.9665 15.984 35.3694 12.7769 36.7442C9.56977 38.1191 6.83699 40.4054 4.91769 43.3195C2.99839 46.2336 1.97707 49.6472 1.98048 53.1366V73.4605H13.0829V53.1366C13.0829 51.3507 13.7923 49.638 15.0551 48.3752C16.3178 47.1125 18.0305 46.403 19.8164 46.403C21.6022 46.403 23.3149 47.1125 24.5777 48.3752C25.8405 49.638 26.5499 51.3507 26.5499 53.1366V73.4605H37.6325V53.1366C37.6325 51.3507 38.342 49.638 39.6047 48.3752C40.8675 47.1125 42.5802 46.403 44.366 46.403C46.1519 46.403 47.8646 47.1125 49.1273 48.3752C50.3901 49.638 51.0995 51.3507 51.0995 53.1366V73.4605H62.1822V53.1366Z" fill="#552306"/>
<path fill-rule="evenodd" clip-rule="evenodd" d="M93.5392 59.5393C93.5392 57.7535 94.2486 56.0408 95.5114 54.778C96.7742 53.5152 98.4869 52.8058 100.273 52.8058C102.059 52.8058 103.771 53.5152 105.034 54.778C106.297 56.0408 107.006 57.7535 107.006 59.5393V73.4605H118.089V59.5393C118.089 54.8142 116.212 50.2826 112.871 46.9414C109.529 43.6002 104.998 41.7231 100.273 41.7231C95.5476 41.7231 91.016 43.6002 87.6748 46.9414C84.3336 50.2826 82.4565 54.8142 82.4565 59.5393V73.4605H93.5392V59.5393Z" fill="#552306"/>
<path d="M21.0305 51.6455H20.8133C18.4713 51.6455 16.5728 53.5441 16.5728 55.886V61.884C16.5728 64.226 18.4713 66.1245 20.8133 66.1245H21.0305C23.3725 66.1245 25.271 64.226 25.271 61.884V55.886C25.271 53.5441 23.3725 51.6455 21.0305 51.6455Z" fill="#552306"/>
<path d="M45.7976 51.6455H45.5804C43.2384 51.6455 41.3398 53.5441 41.3398 55.886V61.884C41.3398 64.226 43.2384 66.1245 45.5804 66.1245H45.7976C48.1396 66.1245 50.0381 64.226 50.0381 61.884V55.886C50.0381 53.5441 48.1396 51.6455 45.7976 51.6455Z" fill="#552306"/>
<path d="M77.8605 48.8516H66.7778V73.4605H77.8605V48.8516Z" fill="#552306"/>
<path d="M244.234 29.1694H233.151V73.4605H244.234V29.1694Z" fill="#552306"/>
<path d="M259.453 29.1694H248.37V73.4605H259.453V29.1694Z" fill="#552306"/>
<path fill-rule="evenodd" clip-rule="evenodd" d="M280.917 40.2569V62.3679C280.034 62.3685 279.159 62.1951 278.342 61.8576C277.525 61.52 276.783 61.025 276.158 60.4006C275.533 59.7763 275.037 59.0349 274.698 58.2188C274.359 57.4027 274.184 56.5279 274.184 55.6442V40.2569H263.096V55.6442C263.096 60.3523 264.96 64.869 268.279 68.2074C271.599 71.5457 276.106 73.4343 280.814 73.4604C280.548 75.0262 279.736 76.4474 278.523 77.4721C277.309 78.4967 275.772 79.0587 274.184 79.0585V90.1559C278.909 90.1559 283.441 88.2789 286.782 84.9377C290.123 81.5965 292 77.0649 292 72.3398V40.252L280.917 40.2569Z" fill="#552306"/>
<path fill-rule="evenodd" clip-rule="evenodd" d="M132.287 55.5849V51.3444H141.261V40.2568H132.287V33.1333H121.204V55.6442C121.204 60.3693 123.081 64.9009 126.422 68.2421C129.764 71.5832 134.295 73.4603 139.02 73.4603V62.3678C138.137 62.3684 137.262 62.195 136.445 61.8575C135.628 61.52 134.886 61.0249 134.261 60.4005C133.636 59.7762 133.14 59.0348 132.801 58.2187C132.462 57.4026 132.287 56.5278 132.287 55.6442V55.5849Z" fill="#552306"/>
<path d="M72.3216 45.8007C75.3834 45.8007 77.8654 43.3187 77.8654 40.2569C77.8654 37.1952 75.3834 34.7131 72.3216 34.7131C69.2599 34.7131 66.7778 37.1952 66.7778 40.2569C66.7778 43.3187 69.2599 45.8007 72.3216 45.8007Z" fill="#552306"/>
<path fill-rule="evenodd" clip-rule="evenodd" d="M182.378 58.6161C185.016 56.4356 186.917 53.4939 187.821 50.1928C188.726 46.8917 188.589 43.392 187.43 40.1715C186.271 36.9509 184.147 34.1665 181.346 32.1983C178.546 30.2301 175.207 29.1741 171.784 29.1743H156.673V40.257H171.784C172.512 40.257 173.232 40.4002 173.904 40.6786C174.576 40.9569 175.186 41.3649 175.701 41.8793C176.215 42.3936 176.623 43.0042 176.901 43.6762C177.18 44.3482 177.323 45.0684 177.323 45.7958C177.323 46.5232 177.18 47.2434 176.901 47.9154C176.623 48.5875 176.215 49.198 175.701 49.7124C175.186 50.2267 174.576 50.6347 173.904 50.9131C173.232 51.1914 172.512 51.3347 171.784 51.3347H156.673V73.4506H167.756V62.4272H171.932C173.276 65.693 175.56 68.486 178.493 70.4513C181.427 72.4167 184.879 73.4658 188.411 73.4654V62.368C187.155 62.3671 185.925 62.0153 184.859 61.3523C183.793 60.6894 182.934 59.7416 182.378 58.6161Z" fill="#552306"/>
<path d="M222.503 55.5851C222.009 47.573 214.846 41.7232 206.765 41.7232C204.173 41.7208 201.62 42.3532 199.33 43.5649C197.039 44.7767 195.08 46.5309 193.623 48.6745C192.167 50.818 191.257 53.2856 190.974 55.8617C190.691 58.4378 191.044 61.0439 192 63.4525C192.957 65.861 194.489 67.9987 196.462 69.6787C198.435 71.3587 200.79 72.53 203.32 73.0902C205.85 73.6504 208.479 73.5824 210.977 72.8923C213.475 72.2021 215.766 70.9108 217.65 69.1311C220.882 71.9261 225.013 73.4631 229.285 73.4605V62.368C227.49 62.3576 225.77 61.6397 224.501 60.3699C223.231 59.1001 222.513 57.3808 222.503 55.5851ZM206.765 62.3976C205.814 62.3976 204.886 62.1158 204.096 61.5877C203.306 61.0597 202.69 60.3093 202.327 59.4313C201.963 58.5533 201.868 57.5873 202.054 56.6554C202.24 55.7235 202.698 54.8677 203.37 54.1961C204.042 53.5245 204.899 53.0675 205.831 52.8827C206.763 52.6979 207.729 52.7937 208.606 53.158C209.484 53.5223 210.234 54.1388 210.761 54.9293C211.288 55.7199 211.569 56.649 211.568 57.5992C211.567 58.8723 211.06 60.0928 210.159 60.9925C209.259 61.8922 208.038 62.3976 206.765 62.3976Z" fill="#552306"/>
</g>
<defs>
<clipPath id="clip0_228_5064">
<rect width="290" height="71.1511" fill="white" transform="translate(2 19)"/>
</clipPath>
</defs>
</svg>
